<?xml version="1.0" standalone="no"?>
<!DOCTYPE svg PUBLIC "-//W3C//DTD SVG 20010904//EN"
 "http://www.w3.org/TR/2001/REC-SVG-20010904/DTD/svg10.dtd">
<svg version="1.0" xmlns="http://www.w3.org/2000/svg"
 width="512.000000pt" height="512.000000pt" viewBox="0 0 512.000000 512.000000"
 preserveAspectRatio="xMidYMid meet">
<metadata>
Created by potrace 1.14, written by Peter Selinger 2001-2017
</metadata>
<g transform="translate(0.000000,512.000000) scale(0.100000,-0.100000)"
fill="#000000" stroke="none">
<path d="M2221 4960 c-5 -3 -8 -95 -7 -205 l1 -200 455 -1 c250 0 487 -4 525
-8 387 -40 575 -163 664 -436 21 -65 53 -259 44 -272 -5 -9 2 -9 275 -10 l187
0 -1 43 c-1 66 -14 187 -24 233 -5 23 -12 56 -15 75 -19 107 -80 250 -155 362
-121 179 -316 303 -581 368 -95 23 -144 31 -299 47 -78 8 -1057 12 -1069 4z"/>
<path d="M1818 4955 c-2 -1 -30 -5 -63 -9 -33 -3 -71 -8 -85 -11 -13 -3 -41
-7 -62 -10 -218 -33 -467 -157 -594 -298 -90 -98 -170 -252 -209 -401 -29
-107 -32 -125 -51 -286 -7 -65 -8 -2644 0 -2740 36 -450 205 -741 521 -890 50
-23 97 -46 106 -50 25 -13 259 -68 314 -74 28 -4 77 -10 110 -13 83 -10 1421
-10 1525 0 241 23 483 100 627 198 117 80 222 203 285 334 48 101 88 234 103
340 4 28 10 66 13 85 3 19 7 554 9 1188 l4 1152 -228 -2 -228 -3 -1 -1040 c-2
-952 -5 -1205 -19 -1275 -12 -62 -15 -76 -31 -128 -78 -270 -277 -404 -654
-440 -98 -9 -1214 -9 -1305 0 -244 25 -401 85 -510 193 -101 100 -165 258
-182 449 -10 102 -10 2588 -1 2676 22 208 84 358 191 457 48 45 153 107 209
124 82 25 146 41 188 46 25 3 47 7 50 10 3 2 5 96 5 208 0 184 -1 204 -17 208
-9 3 -18 4 -20 2z"/>
</g>
</svg>
