<svg width="54" height="45" viewBox="0 0 54 45" fill="none" xmlns="http://www.w3.org/2000/svg">
<path d="M8.13 5.2H10C9.87 1.53 8.09 0 3.96 0H0V1.64H3.55C6.75 1.64 7.96 2.56 8.12 5.2H8.13Z" fill="white"/>
<path d="M35.13 5.2H37C36.87 1.53 35.09 0 30.96 0H27V1.64H30.55C33.75 1.64 34.96 2.56 35.12 5.2H35.13Z" fill="white"/>
<path d="M35.13 27.2H37C36.87 23.53 35.09 22 30.96 22H27V23.64H30.55C33.75 23.64 34.96 24.56 35.12 27.2H35.13Z" fill="white"/>
<path d="M8.13 27.4H10C9.87 23.73 8.09 22.2 3.96 22.2H0V23.84H3.55C6.75 23.84 7.96 24.76 8.12 27.4H8.13Z" fill="white"/>
</svg>
